<?xml version="1.0" encoding="UTF-8"?>
<svg id="Calque_1" xmlns="http://www.w3.org/2000/svg" version="1.1" viewBox="0 0 800 800">
  <!-- Generator: Adobe Illustrator 30.2.1, SVG Export Plug-In . SVG Version: 2.1.1 Build 1)  -->
  <defs>
    <style>
      .st0 {
        fill: #f4edc8;
      }

      .st1 {
        fill: #f5dc61;
      }

      .st2 {
        fill: #825526;
      }

      .st3 {
        fill: #e8cb65;
      }

      .st4 {
        fill: #754e24;
      }

      .st5 {
        fill: #846027;
      }
    </style>
  </defs>
  <g id="Calque_2">
    <polygon class="st3" points="700 250 700 150 600 150 600 100 500 100 500 50 300 50 300 100 200 100 200 150 100 150 100 250 50 250 50 550 100 550 100 650 200 650 200 700 300 700 300 750 500 750 500 700 550 700 600 700 600 650 700 650 700 550 750 550 750 250 700 250"/>
    <polygon class="st1" points="650 300 650 200 550 200 550 150 450 150 450 100 350 100 350 150 250 150 250 200 150 200 150 300 100 300 100 500 150 500 150 600 250 600 250 650 350 650 350 700 450 700 450 650 550 650 550 600 650 600 650 500 700 500 700 300 650 300"/>
    <rect class="st5" x="450" width="50" height="50"/>
    <rect class="st5" x="500" y="50" width="50" height="50"/>
    <rect class="st2" x="600" y="100" width="50" height="50"/>
    <rect class="st2" x="700" y="150" width="50" height="100"/>
    <rect class="st5" x="750" y="250" width="50" height="300"/>
    <rect class="st5" x="700" y="550" width="50" height="50"/>
    <rect class="st5" y="250" width="50" height="300"/>
    <rect class="st5" x="300" width="50" height="50"/>
    <rect class="st2" x="350" width="100" height="50"/>
    <rect class="st2" x="750" y="300" width="50" height="50"/>
    <rect class="st2" x="750" y="450" width="50" height="50"/>
    <rect class="st2" x="700" y="600" width="50" height="50"/>
    <rect class="st5" x="650" y="100" width="50" height="50"/>
    <rect class="st2" x="550" y="50" width="50" height="50"/>
    <rect class="st5" x="250" y="50" width="50" height="50"/>
    <rect class="st2" x="100" y="100" width="50" height="50"/>
    <rect class="st5" x="150" y="100" width="50" height="50"/>
    <rect class="st2" x="200" y="50" width="50" height="50"/>
    <rect class="st2" x="50" y="150" width="50" height="50"/>
    <rect class="st5" x="50" y="200" width="50" height="50"/>
    <rect class="st2" y="250" width="50" height="50"/>
    <rect class="st2" y="350" width="50" height="50"/>
    <rect class="st2" y="500" width="50" height="50"/>
    <rect class="st2" x="50" y="550" width="50" height="50"/>
    <rect class="st5" x="50" y="600" width="50" height="50"/>
    <rect class="st5" x="100" y="650" width="50" height="50"/>
    <rect class="st2" x="150" y="650" width="50" height="50"/>
    <rect class="st5" x="200" y="700" width="50" height="50"/>
    <rect class="st2" x="250" y="700" width="50" height="50"/>
    <rect class="st5" x="300" y="750" width="200" height="50"/>
    <rect class="st2" x="400" y="750" width="50" height="50"/>
    <rect class="st2" x="500" y="700" width="50" height="50"/>
    <rect class="st5" x="550" y="700" width="50" height="50"/>
    <rect class="st2" x="600" y="650" width="50" height="50"/>
    <rect class="st5" x="650" y="650" width="50" height="50"/>
  </g>
  <g id="Calque_3">
    <rect class="st0" x="150" y="200" width="200" height="100"/>
    <rect class="st0" x="100" y="300" width="100" height="50"/>
    <rect class="st0" x="250" y="600" width="150" height="50"/>
    <rect class="st0" x="300" y="550" width="50" height="50"/>
    <rect class="st0" x="450" y="400" width="50" height="150"/>
    <rect class="st0" x="350" y="100" width="100" height="50"/>
    <rect class="st0" x="250" y="150" width="150" height="50"/>
    <rect class="st0" x="100" y="350" width="50" height="50"/>
    <rect class="st0" x="400" y="450" width="50" height="50"/>
    <rect class="st0" x="500" y="350" width="50" height="150"/>
    <rect class="st0" x="600" y="300" width="50" height="100"/>
    <rect class="st0" x="650" y="300" width="50" height="50"/>
    <rect class="st4" x="200" y="350" width="50" height="150"/>
    <rect class="st5" x="250" y="200" width="50" height="50"/>
    <rect class="st2" x="300" y="250" width="50" height="50"/>
    <rect class="st4" x="500" y="200" width="50" height="50"/>
    <rect class="st5" x="450" y="250" width="50" height="50"/>
    <rect class="st5" x="350" y="500" width="50" height="100"/>
    <rect class="st4" x="450" y="600" width="50" height="50"/>
    <rect class="st5" x="300" y="600" width="50" height="50"/>
    <rect class="st5" x="300" y="450" width="50" height="50"/>
    <rect class="st2" x="450" y="450" width="50" height="50"/>
    <rect class="st5" x="200" y="250" width="50" height="100"/>
    <polygon class="st2" points="400 300 400 350 350 350 350 400 450 400 450 350 450 300 400 300"/>
    <rect class="st5" x="350" y="300" width="50" height="50"/>
    <rect class="st4" x="550" y="250" width="50" height="250"/>
    <rect class="st2" x="550" y="350" width="50" height="100"/>
    <rect class="st4" x="400" y="550" width="50" height="50"/>
    <rect class="st2" x="400" y="500" width="50" height="50"/>
  </g>
</svg>